<svg xmlns="http://www.w3.org/2000/svg" viewBox="0 0 64 64" role="img" aria-label="Landi">
  <path d="M32 13c-6.6 0-12 5.4-12 12 0 3.5 1.5 6.6 3.9 8.8-2.2.5-4 2.5-4 4.9 0 2.8 2.2 5 5 5h14.2c2.8 0 5-2.2 5-5 0-2.4-1.7-4.4-4-4.9 2.4-2.2 3.9-5.3 3.9-8.8 0-6.6-5.4-12-12-12Z" fill="#f7fff1"/>
  <path d="M32 25v24" fill="none" stroke="#4f8738" stroke-width="4" stroke-linecap="round"/>
  <path d="M24 31c3.8 2.4 7.2 3.4 12 3.4M40 29c-2.8 2-5.6 3-9 3" fill="none" stroke="#4f8738" stroke-width="3" stroke-linecap="round"/>
  <path d="M17 51h30" fill="none" stroke="#f7fff1" stroke-width="4" stroke-linecap="round"/>
</svg>
